<svg xmlns="http://www.w3.org/2000/svg" xmlns:xlink="http://www.w3.org/1999/xlink" xml:space="preserve" width="1000" height="463.63077">
  <defs>
    <linearGradient xlink:href="#a" id="b" x1="166.74506" x2="759.06494" y1="2003.9513" y2="2444.155" gradientUnits="userSpaceOnUse"/>
    <linearGradient id="a">
      <stop offset="0" stop-color="#06b0fe"/>
      <stop offset="0.25" stop-color="#0283fa"/>
      <stop offset="0.5" stop-color="#0164f6"/>
      <stop offset="0.75" stop-color="#0052f4"/>
      <stop offset="1" stop-color="#0047f3"/>
    </linearGradient>
    <filter id="c" color-interpolation-filters="sRGB">
      <feFlood flood-color="#000" flood-opacity="0.4" result="flood"/>
      <feComposite in="flood" in2="SourceGraphic" operator="in" result="composite1"/>
      <feGaussianBlur result="blur" stdDeviation="7"/>
      <feOffset dx="6" dy="6" result="offset"/>
      <feComposite in="SourceGraphic" in2="offset" result="composite2"/>
    </filter>
  </defs>
  <path fill="#292929" d="M2353.515-2388.6775c-9.3259 0-18.6518 9.326-18.6518 18.6519l0 1184.3913c0 9.3259 9.3259 18.6519 18.6518 18.6519l172.5295 0c15.9415 0 24.502-11.7628 30.0027-26.8204l263.7636-745.4261 0 753.5946c0 9.3259 9.3259 18.6519 18.6518 18.6519l158.5406 0c9.3259 0 18.6519-9.326 18.6519-18.6519l0-1184.3913c0-9.3259-9.326-18.6519-18.6519-18.6519l-172.5294 0c-23.2979 0-28.4145 14.5587-37.3037 37.3037l-256.4627 740.7976 0-759.4494c0-9.3259-9.3259-18.6519-18.6518-18.6519zM3146.2179-2388.6775c-9.3259 0-18.6519 9.326-18.6519 18.6519l0 1184.3913c0 9.3259 9.326 18.6519 18.6519 18.6519l571.6786 0c9.326 0 18.6519-9.326 18.6519-18.6519l0-138.0235c0-9.3259-9.3259-18.6519-18.6519-18.6519l-387.0255 0 0-346.924 309.6204 0c9.326 0 18.6519-9.326 18.6519-18.6519l0-139.8887c0-9.3259-9.3259-18.6519-18.6519-18.6519l-309.6204 0 0-347.8566 387.0255 0c9.326 0 18.6519-9.3259 18.6519-18.6519l0-137.0909c0-9.3259-9.3259-18.6519-18.6519-18.6519zM2353.5105-3824.8685c-9.326 0-18.652 9.3259-18.652 18.6519l0 1184.3913c0 9.3259 9.326 18.6519 18.652 18.6519l571.6787 0c9.3259 0 18.6519-9.326 18.6519-18.6519l0-138.0235c0-9.326-9.326-18.6519-18.6519-18.6519l-387.0255 0 0-346.9241 309.6204 0c9.326 0 18.6518-9.3258 18.6518-18.6518l0-139.8887c0-9.326-9.3258-18.6518-18.6518-18.6518l-309.6204 0 0-503.5995c0-9.326-9.3259-18.6519-18.6519-18.6519zM3053.7426-3824.8685c-9.326 0-18.6519 9.3259-18.6519 18.6519l0 1184.3913c0 9.3259 7.4577 18.6519 16.7837 18.6519l167.8663 0c9.326 0 18.652-9.326 18.652-18.6519l0-1184.3913c0-9.326-11.1909-18.6519-20.517-18.6519zM5090.6715-3824.8685c-9.3259 0-18.6519 9.3259-18.6519 18.6519l0 1027.7159-247.366-1.8652c-9.3258 0-18.6517 9.326-18.6517 18.6518l0 139.8888c0 9.3259 9.3259 18.6519 18.6519 18.6519l704.3356 0c9.326 0 18.6519-9.326 18.6519-18.6519l0-138.0235c0-9.326-9.3259-18.6519-18.6519-18.6519l-253.6646 0 0-1027.7159c0-9.326-9.326-18.6519-18.6519-18.6519zM3365.3769-2603.1735c-9.3259 0-18.6518-9.326-18.6518-18.6519l0-1184.3913c0-9.3259 9.3259-18.6519 18.6518-18.6519l163.2035 0c9.326 0 18.6519 9.326 18.6519 18.6519l0 503.5994 116.5739 0 149.2147-494.2735c4.9973-17.5896 11.4012-27.9778 27.9777-27.9778l167.8665 0c23.3508 0 22.7734 16.6356 7.8688 59.1618l-167.8665 496.0212c83.8222 46.6165 169.9065 130.9191 169.9065 310.6705 0 211.7431-133.3071 355.8416-308.3381 355.8416l-345.0589 0zm181.8554-175.4438 106.9566 0c87.0635 0 149.5061-58.9995 149.5061-177.1924 0-104.8205-62.8674-169.6151-141.3459-169.6151l-115.1168 0 0 346.8075zM4117.9783-3475.1467c0 9.3259 9.326 18.6518 18.6519 18.6518l163.2035 0c9.3259 0 18.6518-9.3259 18.6518-18.6518l0-41.9666c0-70.7875 45.4712-147.4857 121.436-147.4857 68.6175 0 124.2299 58.439 124.2299 144.2132 0 54.5557-30.6779 108.7644-88.9905 152.4871l-192.8186 144.7923c-108.9104 93.8104-167.4611 180.92-167.4611 318.6396 0 212.6542 149.029 315.8771 314.6706 315.8771 176.1952 0 325.3866-106.3965 325.3866-340.9909l0-31.7081c0-9.3259-9.3259-18.6519-18.6518-18.6519l-163.2035 0c-9.326 0-18.6519 9.326-18.6519 18.6519l0 59.6858c0 66.1795-48.1473 136.2349-122.0784 136.2349-79.866 0-120.6882-64.2584-120.6882-136.2349 0-68.4839 37.4924-113.8815 102.7989-171.6323l200.5862-154.7747c95.3984-81.1523 147.8664-161.7571 147.8664-280.3072 0-199.6418-126.3716-328.927-324.0174-328.927-212.212 0-320.9204 142.4301-320.9204 301.4789zM4901.3552-2039.6667c0 9.3259 9.326 18.6519 18.6519 18.6519l163.2035 0c9.3259 0 18.6519-9.326 18.6519-18.6519l0-41.9667c0-70.7873 45.4711-147.4855 121.4359-147.4855 68.6175 0 124.23 58.4389 124.23 144.2131 0 54.5557-30.678 108.7645-88.9905 152.4871l-192.8187 144.7923c-108.9104 93.8104-167.4611 180.9201-167.4611 318.6396 0 212.6542 149.029 315.8771 314.6706 315.8771 176.1952 0 325.3867-106.3965 325.3867-340.9909l0-31.7081c0-9.3259-9.326-18.6519-18.652-18.6519l-163.2034 0c-9.326 0-18.6519 9.326-18.6519 18.6519l0 59.6858c0 66.1796-48.1472 136.2349-122.0784 136.2349-79.866 0-120.6882-64.2584-120.6882-136.2349 0-68.4839 37.4924-113.8815 102.7989-171.6323l200.5862-154.7747c95.3984-81.1523 147.8663-161.7571 147.8663-280.3073 0-199.6416-126.3715-328.9268-324.0173-328.9268-212.212 0-320.9204 142.43-320.9204 301.4789z" transform="matrix(1.25,0,0,-1.25,167.8538,-142.60817) scale(0.12,0.12)"/>
  <path fill="url(#b)" d="m 820.84641,2234.3672 c 0,204.4311 -165.72417,370.1553 -370.15528,370.1553 -204.43111,0 -370.155272,-165.7242 -370.155272,-370.1553 0,-204.4311 165.724162,-370.1553 370.155272,-370.1553 204.43111,0 370.15528,165.7242 370.15528,370.1553 z" transform="matrix(1.25,0,0,-1.25,167.8538,-142.60817) scale(0.12,0.12) matrix(3.0908718,0,0,-3.0908718,-1163.2231,772.41473) matrix(1.3507845,0,0,1.3507845,-94.487132,-1960.6567)"/>
  <path fill="#fff" d="m 618.81183,821.59799 c -98.07264,0 -173.36308,58.928 -206.21936,123.9136 l 0,-115.0624 -147.9374,87.2452 3.9e-4,367.31441 147.93701,0 0,-114.43 c 27.56724,55.3956 99.54788,124.032 205.62668,124.032 136.0404,0 235.73572,-110.2856 235.73572,-233.9972 0,-147.28161 -117.5892,-239.01561 -235.14304,-239.01561 z m 0.79028,147.9772 c 47.2894,0 87.1266,39.07961 87.1266,88.27241 0,45.1472 -35.2796,88.7072 -87.04756,88.7072 -51.48208,0 -88.47008,-42.23 -88.47008,-88.5492 0,-43.836 33.76084,-88.43041 88.39104,-88.43041 z" transform="matrix(1.25,0,0,-1.25,167.8538,-142.60817) scale(0.12,0.12) matrix(3.0908718,0,0,-3.0908718,-1163.2231,772.41473)"/>
  <path fill="#fff" d="m 213,1889 0,-117.2786 c 26.45638,0 69,-19.5624 69,-70.7214 l 117,0 c 0,106.1319 -83.70117,188 -186,188 z" filter="url(#c)" transform="matrix(1.25,0,0,-1.25,167.8538,-142.60817) scale(0.12,0.12) matrix(3.0908718,0,0,-3.0908718,-1163.2231,772.41473) matrix(1.2644223,0,0,1.2644223,-91.91202,-1320.3332)"/>
  <path fill="#292929" d="m 4449.1426,-2355.0277 c 3.2018,-18.8411 10.0594,-33.6497 23.9052,-33.6497 l 150.0329,0 c 9.814,0 17.4318,14.3712 20.7996,28.3311 l 209.8225,1144.1324 c 6.665,29.9063 9.2594,49.2315 -13.6727,49.2315 l -158.5407,0 c -18.0968,0 -22.0638,-12.8436 -24.7908,-26.9566 l -110.7061,-746.9377 -111.0667,717.4464 c -3.6322,28.4851 -6.6536,56.4479 -27.9777,56.4479 l -136.9574,0 c -21.3239,0 -24.3454,-27.9628 -27.9777,-56.4479 l -104.93,-717.4464 -122.079,746.9377 c -2.7268,14.113 -6.6938,26.9566 -24.7908,26.9566 l -158.5405,0 c -22.9321,0 -20.3377,-19.3252 -13.6727,-49.2315 l 216.6951,-1144.1324 c 3.3678,-13.9599 10.9856,-28.3311 20.7996,-28.3311 l 149.2147,0 c 13.8458,0 15.3515,16.1104 18.5533,34.9515 l 112.5881,757.7514 c 0,0 75.5564,-507.5109 113.2918,-759.0532 z" transform="matrix(1.25,0,0,-1.25,167.8538,-142.60817) scale(0.12,0.12)"/>
</svg>
